# xmcd
#
# Track frame offsets: 
#        183
#        12340
#        25710
#        38048
#        51838
#        67825
#        82170
#        95493
#        110158
#        125605
#        140663
#        154610
#        169690
#        187008
#        198865
#        209828
#        224580
#        239060
#
# Disc length: 3379 seconds
#
# Revision: 3
# Processed by: cddbd v1.5.2PL0 Copyright (c) Steve Scherf et al.
# Submitted via: ExactAudioCopyFreeDBPlugin 1.0
#
DISCID=0f0d3112
DTITLE=Dolly Parton - Country Classics
DYEAR=1993
DGENRE=Country
TTITLE0=Jolene
TTITLE1=Here You Come Again
TTITLE2=The Bargain Store
TTITLE3=The Seeker
TTITLE4=Heartbreaker
TTITLE5=I Really Got The Feeling
TTITLE6=I Will Always Love You
TTITLE7=It's All Wrong, But It's All Right
TTITLE8=Old Flames (Can't Hold A Candle To You)
TTITLE9=You're The Only One
TTITLE10=Joshua
TTITLE11=But You Know I Love You
TTITLE12=Potential New Boyfriend
TTITLE13=Baby I'm Burnin'
TTITLE14=All I Can Do
TTITLE15=Sweet Summer Love
TTITLE16=We Used To
TTITLE17=Mule Skinner Blues (Blue Yodel No. 8)
EXTD=
EXTT0=
EXTT1=
EXTT2=
EXTT3=
EXTT4=
EXTT5=
EXTT6=
EXTT7=
EXTT8=
EXTT9=
EXTT10=
EXTT11=
EXTT12=
EXTT13=
EXTT14=
EXTT15=
EXTT16=
EXTT17=
PLAYORDER=
